<svg width="58" height="58" viewBox="0 0 58 58" fill="none" xmlns="http://www.w3.org/2000/svg">
<path fill-rule="evenodd" clip-rule="evenodd" d="M58 29C58 45.0163 45.0163 58 29 58C12.9837 58 0 45.0163 0 29C0 12.9837 12.9837 0 29 0C45.0163 0 58 12.9837 58 29ZM31.7826 32.7518C30.9542 33.304 29.992 33.596 29 33.596C28.008 33.596 27.0458 33.304 26.2174 32.7518L12.5735 23.6556C12.4978 23.6051 12.4241 23.5525 12.3518 23.4984V38.4035C12.3518 40.1124 13.7386 41.4686 15.417 41.4686H42.5829C44.2918 41.4686 45.6481 40.0818 45.6481 38.4035V23.4983C45.5757 23.5526 45.5018 23.6053 45.4259 23.6558L31.7826 32.7518ZM27.2996 31.1285L13.6557 22.0323C12.8393 21.4883 12.3518 20.5778 12.3518 19.5968C12.3518 17.9057 13.7264 16.5311 15.4159 16.5311H42.584C44.2735 16.5311 45.6481 17.9056 45.6481 19.5952C45.6481 20.5778 45.1607 21.4883 44.3442 22.0323L30.7004 31.1285C30.1839 31.4728 29.5919 31.645 28.9999 31.645C28.408 31.645 27.8161 31.4729 27.2996 31.1285Z" fill="white"/>
</svg>
