<svg width="80" height="80" viewBox="0 0 80 80" fill="none" xmlns="http://www.w3.org/2000/svg">
<g clip-path="url(#clip0_35_88)">
<path d="M55 0C53.6739 0 52.4022 0.526784 51.4645 1.46447C50.5268 2.40215 50 3.67392 50 5C50 9.39 48.8533 13.3333 35 13.3333H15C11.0231 13.3377 7.21036 14.9195 4.39827 17.7316C1.58618 20.5437 0.00441142 24.3564 0 28.3333L0 38.3333C0.00912789 41.0358 0.750766 43.6851 2.14599 45.9996C3.54121 48.314 5.53782 50.2068 7.92333 51.4767L18.5167 75.12C19.1629 76.5722 20.2162 77.806 21.549 78.6721C22.8819 79.5382 24.4372 79.9994 26.0267 80C27.2424 79.9992 28.4387 79.6948 29.5069 79.1144C30.5751 78.534 31.4815 77.696 32.1437 76.6765C32.806 75.657 33.2031 74.4883 33.2991 73.2763C33.3951 72.0644 33.1868 70.8477 32.6933 69.7367L25.17 53.3333H35C48.8533 53.3333 50 57.2767 50 61.6667C50 62.9927 50.5268 64.2645 51.4645 65.2022C52.4022 66.1399 53.6739 66.6667 55 66.6667C56.3261 66.6667 57.5979 66.1399 58.5355 65.2022C59.4732 64.2645 60 62.9927 60 61.6667V5C60 3.67392 59.4732 2.40215 58.5355 1.46447C57.5979 0.526784 56.3261 0 55 0V0ZM50 45.7033C45.2053 43.9316 40.1074 43.1261 35 43.3333H15C13.6739 43.3333 12.4021 42.8065 11.4645 41.8689C10.5268 40.9312 10 39.6594 10 38.3333V28.3333C10 27.0072 10.5268 25.7355 11.4645 24.7978C12.4021 23.8601 13.6739 23.3333 15 23.3333H35C40.1074 23.5406 45.2053 22.7351 50 20.9633V45.7033ZM79.4733 52.2367C79.1797 52.8242 78.7733 53.3482 78.2771 53.7786C77.781 54.2091 77.2049 54.5375 76.5817 54.7452C75.9586 54.9529 75.3007 55.0358 74.6455 54.9892C73.9903 54.9425 73.3508 54.7672 72.7633 54.4733L69.43 52.8067C68.2436 52.2135 67.3414 51.1733 66.922 49.9149C66.5025 48.6565 66.6001 47.2831 67.1933 46.0967C67.7865 44.9103 68.8267 44.0081 70.0851 43.5886C71.3435 43.1692 72.7169 43.2668 73.9033 43.86L77.2367 45.5267C77.8242 45.8203 78.3482 46.2267 78.7786 46.7229C79.2091 47.219 79.5375 47.7951 79.7452 48.4183C79.9529 49.0414 80.0358 49.6993 79.9892 50.3545C79.9425 51.0097 79.7672 51.6493 79.4733 52.2367ZM67.1933 20.57C66.8994 19.9826 66.7242 19.343 66.6775 18.6878C66.6309 18.0327 66.7138 17.3747 66.9215 16.7516C67.1292 16.1285 67.4576 15.5524 67.888 15.0562C68.3185 14.5601 68.8424 14.1536 69.43 13.86L72.7633 12.1933C73.9497 11.6001 75.3232 11.5025 76.5816 11.922C77.8399 12.3414 78.8801 13.2436 79.4733 14.43C80.0665 15.6164 80.1642 16.9899 79.7447 18.2482C79.3252 19.5066 78.4231 20.5468 77.2367 21.14L73.9033 22.8067C73.3159 23.1006 72.6764 23.2759 72.0212 23.3225C71.366 23.3692 70.7081 23.2863 70.0849 23.0785C69.4618 22.8708 68.8857 22.5424 68.3896 22.112C67.8934 21.6815 67.4869 21.1576 67.1933 20.57ZM66.6667 33.3333C66.6667 32.0073 67.1935 30.7355 68.1311 29.7978C69.0688 28.8601 70.3406 28.3333 71.6667 28.3333H75C76.3261 28.3333 77.5979 28.8601 78.5355 29.7978C79.4732 30.7355 80 32.0073 80 33.3333C80 34.6594 79.4732 35.9312 78.5355 36.8689C77.5979 37.8065 76.3261 38.3333 75 38.3333H71.6667C70.3406 38.3333 69.0688 37.8065 68.1311 36.8689C67.1935 35.9312 66.6667 34.6594 66.6667 33.3333Z" fill="#ABF337"/>
</g>
<defs>
<clipPath id="clip0_35_88">
<rect width="80" height="80" fill="white"/>
</clipPath>
</defs>
</svg>
