<svg width="90" height="90" viewBox="0 0 90 90" fill="none" xmlns="http://www.w3.org/2000/svg">
<path fill-rule="evenodd" clip-rule="evenodd" d="M90 45C90 69.8528 69.8528 90 45 90C20.1472 90 0 69.8528 0 45C0 20.1472 20.1472 0 45 0C69.8528 0 90 20.1472 90 45ZM49.3178 50.8219C48.0324 51.6789 46.5393 52.1319 44.9999 52.1319C43.4606 52.1319 41.9675 51.6789 40.6821 50.8219L19.5106 36.7071C19.3931 36.6288 19.2787 36.5472 19.1666 36.4632V59.5918C19.1666 62.2436 21.3185 64.3481 23.9228 64.3481H66.0769C68.7286 64.3481 70.8331 62.1962 70.8331 59.5918V36.4631C70.7208 36.5473 70.6062 36.6291 70.4884 36.7075L49.3178 50.8219ZM42.3614 48.3031L21.1899 34.1882C19.923 33.3441 19.1666 31.9313 19.1666 30.409C19.1666 27.7848 21.2995 25.652 23.9212 25.6519H66.0786C68.7003 25.6519 70.8332 27.7847 70.8332 30.4065C70.8332 31.9313 70.0769 33.3441 68.81 34.1882L47.6384 48.3031C46.837 48.8373 45.9184 49.1045 44.9998 49.1045C44.0813 49.1045 43.1628 48.8374 42.3614 48.3031Z" fill="#AC28FD"/>
</svg>
