<svg width="58" height="58" viewBox="0 0 58 58" fill="none" xmlns="http://www.w3.org/2000/svg">
<g clip-path="url(#clip0_121_1141)">
<path fill-rule="evenodd" clip-rule="evenodd" d="M29 0C12.9848 0 0 12.9848 0 29C0 45.0153 12.9848 58 29 58C45.0153 58 58 45.0153 58 29C58 12.9848 45.0153 0 29 0ZM42.4415 19.7224C42.0065 24.3068 40.1167 35.4356 39.1572 40.571C38.7512 42.746 37.9489 43.4734 37.1756 43.5435C35.4912 43.6982 34.2128 42.4294 32.5815 41.3613C30.0295 39.6889 28.5868 38.6473 26.1097 37.0137C23.2459 35.1263 25.1019 34.0895 26.7332 32.3954C27.1609 31.9508 34.5801 25.201 34.7251 24.5896C34.742 24.5123 34.7613 24.2271 34.5898 24.0773C34.4182 23.9274 34.1693 23.9782 33.9904 24.0193C33.7342 24.0773 29.6573 26.7718 21.7573 32.103C20.5997 32.8981 19.5508 33.2848 18.6108 33.2654C17.5764 33.2437 15.5851 32.6806 14.1037 32.1973C12.2888 31.6076 10.8436 31.2934 10.9693 30.2929C11.0345 29.7709 11.7523 29.2368 13.1249 28.6907C21.5784 25.0077 27.2165 22.5789 30.0368 21.4044C38.0915 18.0549 39.7638 17.4725 40.8562 17.4532C42.224 17.4338 42.5527 18.5624 42.4415 19.7224Z" fill="white"/>
</g>
<defs>
<clipPath id="clip0_121_1141">
<rect width="58" height="58" fill="white"/>
</clipPath>
</defs>
</svg>
