<svg width="80" height="80" viewBox="0 0 80 80" fill="none" xmlns="http://www.w3.org/2000/svg">
<g clip-path="url(#clip0_35_81)">
<path d="M75.7733 30.0433C74.5166 28.8978 73.0464 28.0112 71.4467 27.4342C69.8471 26.8572 68.1494 26.6012 66.4508 26.6807C64.7521 26.7603 63.0858 27.1739 61.5471 27.8978C60.0084 28.6218 58.6275 29.642 57.4833 30.9L49.3567 39.83C47.1251 37.7925 44.2118 36.6641 41.19 36.6667H11.6667C8.57247 36.6667 5.60501 37.8958 3.41709 40.0838C1.22916 42.2717 0 45.2391 0 48.3333L0 68.3333C0 71.4275 1.22916 74.395 3.41709 76.5829C5.60501 78.7708 8.57247 80 11.6667 80H48.9367L76.7167 48.2267C78.9718 45.676 80.1364 42.3424 79.96 38.9423C79.7836 35.5422 78.2803 32.347 75.7733 30.0433ZM69.2233 41.6067L44.3967 70H11.6667C11.2246 70 10.8007 69.8244 10.4882 69.5118C10.1756 69.1993 10 68.7754 10 68.3333V48.3333C10 47.8913 10.1756 47.4674 10.4882 47.1548C10.8007 46.8423 11.2246 46.6667 11.6667 46.6667H41.19C41.7336 46.6628 42.2582 46.866 42.6575 47.2349C43.0567 47.6038 43.3006 48.1108 43.3396 48.653C43.3787 49.1951 43.2099 49.7318 42.8676 50.1541C42.5253 50.5764 42.0352 50.8526 41.4967 50.9267L24.2933 53.3833L25.7067 63.2833L42.9133 60.8267C45.5229 60.4406 47.9373 59.2202 49.7957 57.348C51.6541 55.4758 52.8566 53.0523 53.2233 50.44L64.89 37.63C65.1501 37.3438 65.4641 37.1116 65.814 36.9468C66.1639 36.782 66.5429 36.6877 66.9292 36.6695C67.3156 36.6512 67.7018 36.7093 68.0656 36.8403C68.4295 36.9714 68.764 37.1729 69.05 37.4333C69.6233 37.9656 69.9631 38.7027 69.9956 39.4843C70.0281 40.2659 69.7505 41.0287 69.2233 41.6067ZM23.3333 8.25C23.2382 6.16252 23.974 4.12238 25.3796 2.57616C26.7853 1.02995 28.7463 0.103637 30.8333 0C32.9204 0.103637 34.8814 1.02995 36.2871 2.57616C37.6927 4.12238 38.4285 6.16252 38.3333 8.25C38.2382 6.16252 38.974 4.12238 40.3796 2.57616C41.7853 1.02995 43.7463 0.103637 45.8333 0C47.9204 0.103637 49.8814 1.02995 51.2871 2.57616C52.6927 4.12238 53.4285 6.16252 53.3333 8.25C53.3333 16.89 38.3333 27.5 38.3333 27.5C38.3333 27.5 23.3333 16.89 23.3333 8.25Z" fill="#ABF337"/>
</g>
<defs>
<clipPath id="clip0_35_81">
<rect width="80" height="80" fill="white"/>
</clipPath>
</defs>
</svg>
