<svg width="170" height="79" viewBox="0 0 170 79" fill="none" xmlns="http://www.w3.org/2000/svg">
<path d="M50.209 31.7928H56.0466V25.0872H63.2431V31.7928H69.0807V13.6116H63.2431V19.7427H56.0466V13.6116H50.209V31.7928Z" fill="white"/>
<path d="M72.1002 31.7928H88.3551V26.823H77.6988V24.9124H86.9334V20.2797H77.6988V18.7188H88.1538V13.6116H72.1002V31.7928Z" fill="white"/>
<path d="M90.5945 31.7928H125.922C128.757 31.7928 131.089 31.027 132.918 29.4952C134.746 27.9634 135.66 25.7615 135.66 22.8895V22.4275C135.66 19.5388 134.75 17.3494 132.93 15.8593C131.118 14.3608 128.783 13.6116 125.922 13.6116H90.5945V31.7928ZM96.2938 27.1351V18.4066H125.419C126.702 18.4066 127.742 18.6813 128.539 19.2308C129.344 19.7719 129.747 20.7292 129.747 22.1028V23.2891C129.747 24.671 129.336 25.6575 128.514 26.2485C127.701 26.8396 126.669 27.1351 125.419 27.1351H96.2938Z" fill="white"/>
<path d="M137.807 22.877C137.807 26.0238 138.801 28.3547 140.789 29.8698C142.777 31.3766 145.385 32.13 148.615 32.13C151.089 32.13 153.11 31.822 154.679 31.2059C156.256 30.5899 157.426 29.9406 158.189 29.2579V21.3286L148.438 21.3411V25.774H152.603V26.7106C152.175 26.9437 151.647 27.1226 151.018 27.2475C150.397 27.3724 149.617 27.4348 148.678 27.4348C147.21 27.4348 146.04 27.1601 145.167 26.6107C144.303 26.0529 143.872 25.1205 143.872 23.8136V21.5908C143.872 20.3088 144.282 19.4098 145.104 18.8936C145.926 18.3775 146.966 18.1194 148.225 18.1194C149.583 18.1194 150.594 18.236 151.257 18.4691C151.919 18.6938 152.309 19.0976 152.427 19.6803L152.439 19.9425H158.025L158.013 19.4431C157.962 17.4451 157.107 15.9175 155.446 14.8603C153.794 13.803 151.462 13.2744 148.451 13.2744C145.364 13.2744 142.819 14.032 140.814 15.5471C138.81 17.0539 137.807 19.3556 137.807 22.4525V22.877Z" fill="white"/>
<path d="M50.209 54.8982H92.0162V49.9283H55.8076V48.0178H90.5945V43.385H55.8076V41.8242H91.8149V36.7169H50.209V54.8982Z" fill="white"/>
<path d="M93.9033 54.8982H99.741V48.1926H106.937V54.8982H112.775V36.7169H106.937V42.8481H99.741V36.7169H93.9033V54.8982Z" fill="white"/>
<path d="M115.002 45.9824C115.002 49.1375 116.008 51.4684 118.021 52.9752C120.034 54.4819 122.584 55.2353 125.671 55.2353C128.749 55.2353 131.303 54.4819 133.333 52.9752C135.362 51.4684 136.377 49.1375 136.377 45.9824V45.5578C136.377 42.436 135.362 40.1259 133.333 38.6275C131.311 37.129 128.757 36.3798 125.671 36.3798C122.584 36.3798 120.034 37.129 118.021 38.6275C116.008 40.1259 115.002 42.436 115.002 45.5578V45.9824ZM121.091 46.9189V44.6587C121.091 43.3684 121.498 42.4568 122.312 41.9241C123.134 41.3829 124.253 41.1207 125.671 41.1374C127.088 41.1457 128.212 41.4121 129.043 41.9365C129.881 42.461 130.301 43.3684 130.301 44.6587V46.9314C130.301 48.255 129.881 49.1957 129.043 49.7535C128.212 50.3029 127.088 50.5735 125.671 50.5651C124.253 50.5568 123.134 50.2821 122.312 49.741C121.498 49.1916 121.091 48.2509 121.091 46.9189Z" fill="white"/>
<path d="M137.824 45.9824C137.824 49.1291 138.818 51.4601 140.806 52.9752C142.794 54.4819 145.402 55.2353 148.631 55.2353C151.106 55.2353 153.127 54.9273 154.695 54.3113C156.272 53.6953 157.442 53.0459 158.206 52.3633V44.434L148.455 44.4465V48.8794H152.62V49.8159C152.192 50.049 151.663 50.228 151.034 50.3529C150.414 50.4777 149.634 50.5402 148.694 50.5402C147.226 50.5402 146.056 50.2655 145.184 49.716C144.32 49.1583 143.888 48.2259 143.888 46.9189V44.6962C143.888 43.4142 144.299 42.5151 145.121 41.999C145.943 41.4828 146.983 41.2248 148.241 41.2248C149.6 41.2248 150.611 41.3413 151.273 41.5744C151.936 41.7992 152.326 42.2029 152.443 42.7857L152.456 43.0479H158.042L158.03 42.5484C157.979 40.5505 157.124 39.0229 155.463 37.9656C153.811 36.9084 151.479 36.3798 148.468 36.3798C145.381 36.3798 142.836 37.1373 140.831 38.6524C138.826 40.1592 137.824 42.461 137.824 45.5578V45.9824Z" fill="white"/>
<path d="M114.443 60.7409C114.631 62.4099 115.209 63.5987 116.176 64.3073C117.147 65.0154 118.413 65.2819 119.973 65.1069C121.015 64.99 121.86 64.7317 122.509 64.3321C123.157 63.9279 123.647 63.5111 123.978 63.0818L123.496 58.8218L119.19 59.3049L119.431 61.4349L120.716 61.2907L120.846 62.4387C120.684 62.5876 120.521 62.6992 120.356 62.7738C120.191 62.8437 119.985 62.8925 119.74 62.92C119.207 62.9797 118.757 62.8762 118.389 62.6093C118.025 62.3373 117.796 61.784 117.702 60.9496L117.506 59.2207C117.415 58.4139 117.488 57.8407 117.727 57.5011C117.964 57.157 118.312 56.9592 118.771 56.9078C119.252 56.8537 119.611 56.9116 119.846 57.0813C120.085 57.2505 120.227 57.5311 120.271 57.923L120.282 58.0198L123.352 57.6754L123.341 57.5086C123.278 56.5025 122.821 55.739 121.97 55.2182C121.119 54.6974 120.017 54.5129 118.665 54.6646C117.187 54.8303 116.055 55.3659 115.266 56.2714C114.482 57.1764 114.185 58.4634 114.374 60.1324L114.443 60.7409Z" fill="#BB6BD9"/>
<path d="M124.16 64.441L126.973 64.1254L128.478 57.4646C128.515 57.3016 128.54 57.1471 128.552 57.001C128.563 56.8504 128.571 56.7118 128.575 56.5852L128.617 56.5806C128.649 56.703 128.688 56.8341 128.731 56.9739C128.775 57.1137 128.834 57.2611 128.908 57.4163L131.905 63.5722L135.218 63.2005L130.214 53.5439L126.776 53.9297L124.16 64.441ZM126.626 62.4275L132.065 61.8174L131.241 59.7598L126.949 60.2413L126.626 62.4275Z" fill="#BB6BD9"/>
<path d="M135.753 63.1405L138.219 62.8638L137.613 57.5112C137.594 57.3452 137.569 57.1636 137.537 56.9664C137.51 56.7641 137.48 56.5807 137.447 56.4163L137.502 56.4101C137.544 56.5735 137.593 56.7548 137.648 56.954C137.708 57.1481 137.773 57.3252 137.842 57.4855L140.171 62.6449L142.685 62.3628L143.823 56.8146C143.855 56.6429 143.876 56.4561 143.886 56.2542C143.9 56.0472 143.909 55.8594 143.914 55.6908L143.962 55.6854C143.967 55.8529 143.976 56.0386 143.99 56.2425C144.008 56.4413 144.026 56.6237 144.045 56.7896L144.651 62.1423L147.728 61.7971L146.588 51.728L142.504 52.1862L141.374 57.5515C141.342 57.7278 141.315 57.8826 141.293 58.0158C141.275 58.1486 141.266 58.3153 141.265 58.5162L141.23 58.5201C141.185 58.3244 141.139 58.1662 141.092 58.0454C141.045 57.9199 140.984 57.7727 140.908 57.6037L138.628 52.621L134.613 53.0714L135.753 63.1405Z" fill="#BB6BD9"/>
<path d="M149.492 61.5991L156.938 60.7638L156.684 58.5162L152.273 59.0111L152.068 57.1992L155.777 56.7831L155.531 54.6116L151.822 55.0277L151.645 53.4648L155.973 52.9793L155.715 50.7041L148.352 51.5301L149.492 61.5991Z" fill="#BB6BD9"/>
<path d="M157.364 57.7536C157.483 58.8094 157.98 59.5474 158.853 59.9677C159.73 60.3875 160.792 60.5276 162.037 60.3878C163.301 60.246 164.297 59.8612 165.023 59.2335C165.754 58.6052 166.058 57.7494 165.935 56.666C165.818 55.6753 165.409 54.9624 164.708 54.5275C164.012 54.0921 163.149 53.8037 162.12 53.6623C161.206 53.5361 160.644 53.4381 160.434 53.3682C160.229 53.2932 160.112 53.1382 160.086 52.9031C160.062 52.6956 160.127 52.5226 160.28 52.384C160.433 52.2408 160.688 52.1492 161.044 52.1092C161.401 52.0692 161.679 52.129 161.88 52.2885C162.086 52.4476 162.206 52.6769 162.24 52.9766L162.263 53.1841L165.285 52.8451L165.25 52.5408C165.141 51.5772 164.676 50.8683 163.856 50.4141C163.035 49.9599 162.009 49.8019 160.778 49.9401C159.537 50.0793 158.565 50.4638 157.862 51.0935C157.164 51.7227 156.872 52.5376 156.985 53.538C157.089 54.4135 157.487 55.0715 158.179 55.5121C158.876 55.9475 159.752 56.2275 160.807 56.3519C161.729 56.4585 162.29 56.573 162.492 56.6951C162.693 56.8172 162.811 57.0328 162.846 57.3417C162.873 57.5814 162.795 57.7816 162.612 57.9422C162.428 58.1029 162.151 58.204 161.781 58.2456C161.401 58.2882 161.095 58.2315 160.861 58.0756C160.628 57.9197 160.491 57.6619 160.45 57.3023L160.424 57.0741L157.326 57.4216L157.364 57.7536Z" fill="#BB6BD9"/>
<path fill-rule="evenodd" clip-rule="evenodd" d="M115.065 65.8193L115.061 65.8164C113.524 64.6895 112.796 62.9228 112.573 60.9508L112.504 60.3423C112.281 58.3703 112.595 56.4869 113.842 55.0476L113.845 55.0439C115.012 53.7042 116.624 53.0078 118.455 52.8024C120.075 52.6207 121.637 52.8146 122.956 53.6215C123.625 54.0304 124.153 54.5507 124.532 55.1606L124.95 53.479C125.14 52.7183 125.784 52.1552 126.567 52.0675L130.005 51.6818C130.781 51.5947 131.53 51.9938 131.888 52.6848L132.897 54.6314L132.744 53.2814C132.628 52.2529 133.371 51.3251 134.404 51.2093L138.419 50.7589C139.228 50.668 140.004 51.106 140.342 51.8441L140.556 52.3107L140.663 51.8016C140.83 51.0103 141.487 50.4146 142.294 50.324L146.379 49.8659C146.698 49.8301 147.007 49.8759 147.286 49.9866C147.532 49.8169 147.824 49.7037 148.143 49.6679L155.505 48.8419C156.087 48.7767 156.636 48.9824 157.026 49.358C158.03 48.6184 159.251 48.2256 160.568 48.0779C162.065 47.9099 163.514 48.0801 164.772 48.7763C166.147 49.5377 166.947 50.7924 167.122 52.331L167.156 52.6353C167.21 53.1123 167.079 53.5675 166.82 53.9302C167.384 54.6461 167.696 55.5177 167.806 56.4476L167.807 56.4562C167.988 58.0571 167.525 59.5578 166.257 60.6494C165.164 61.5943 163.771 62.0794 162.249 62.2501C160.92 62.3992 159.639 62.2973 158.476 61.846C158.177 62.267 157.705 62.5638 157.15 62.6261L149.704 63.4615C149.385 63.4973 149.075 63.4514 148.797 63.3407C148.55 63.5104 148.259 63.6236 147.94 63.6594L144.863 64.0046C144.502 64.0451 144.154 63.9812 143.848 63.8372C143.58 64.047 143.253 64.1852 142.897 64.2251L140.382 64.5072C140.029 64.5468 139.683 64.4858 139.376 64.3433C139.111 64.5486 138.788 64.686 138.431 64.7262L135.965 65.0028C135.874 65.013 135.784 65.0166 135.695 65.0139C135.608 65.0363 135.52 65.0527 135.43 65.0628L132.117 65.4345C131.324 65.5235 130.56 65.1047 130.212 64.3896L129.992 63.9361L128.919 64.0564L128.811 64.5366C128.635 65.3158 127.982 65.8983 127.185 65.9878L124.372 66.3033C123.976 66.3478 123.581 66.2653 123.242 66.0763C122.341 66.57 121.298 66.8444 120.185 66.9692C118.302 67.1804 116.521 66.8816 115.065 65.8193ZM122.279 64.4641C121.665 64.7892 120.897 65.0035 119.974 65.1069C118.414 65.282 117.148 65.0155 116.177 64.3074C115.21 63.5987 114.633 62.41 114.444 60.741L114.375 60.1324C114.186 58.4635 114.483 57.1765 115.267 56.2715C116.056 55.366 117.189 54.8304 118.666 54.6647C120.018 54.513 121.12 54.6975 121.971 55.2183C122.271 55.402 122.523 55.6159 122.725 55.8601C122.987 56.1766 123.167 56.544 123.264 56.9622C123.27 56.9917 123.277 57.0214 123.283 57.0514C123.312 57.1978 123.332 57.3502 123.342 57.5087L123.354 57.6754L120.283 58.0199L120.272 57.9231C120.245 57.6787 120.179 57.4776 120.076 57.3198C120.013 57.2246 119.937 57.1451 119.847 57.0814C119.612 56.9117 119.253 56.8538 118.772 56.9078C118.313 56.9593 117.965 57.1571 117.728 57.5012C117.562 57.7368 117.476 58.085 117.47 58.5457C117.467 58.7488 117.479 58.9739 117.507 59.2207L117.703 60.9496C117.731 61.1962 117.77 61.4182 117.822 61.6156C117.944 62.0865 118.134 62.4177 118.39 62.6094C118.725 62.8526 119.129 62.9602 119.601 62.9321C119.647 62.9294 119.694 62.9253 119.741 62.9201C119.986 62.8925 120.192 62.8438 120.357 62.7739C120.522 62.6993 120.686 62.5876 120.847 62.4388L120.717 61.2908L119.432 61.435L119.191 59.305L123.497 58.8219L123.979 63.0818C123.707 63.4348 123.328 63.7793 122.841 64.1153C122.736 64.188 122.625 64.2603 122.51 64.3322C122.436 64.378 122.359 64.422 122.279 64.4641ZM124.161 64.4411L126.975 64.1255L127.377 62.3435L131.104 61.9254L131.906 63.5722L135.219 63.2005L130.215 53.544L126.777 53.9297L124.161 64.4411ZM130.112 59.8867L128.909 57.4163C128.843 57.2768 128.789 57.1435 128.746 57.0164C128.746 57.016 128.746 57.0156 128.746 57.0152C128.741 57.0014 128.737 56.9876 128.733 56.9739C128.689 56.8365 128.652 56.7074 128.619 56.5868C128.619 56.5848 128.618 56.5827 128.618 56.5806L128.576 56.5853C128.576 56.5874 128.576 56.5896 128.576 56.5917C128.571 56.7165 128.564 56.853 128.553 57.0011C128.552 57.011 128.551 57.0208 128.55 57.0308C128.538 57.168 128.514 57.3127 128.479 57.4647L127.875 60.1376L130.112 59.8867ZM138.22 62.8639L137.614 57.5113C137.596 57.351 137.572 57.1762 137.542 56.9868C137.541 56.9858 137.541 56.9849 137.541 56.9839C137.54 56.9781 137.539 56.9723 137.538 56.9665C137.511 56.7673 137.482 56.5864 137.45 56.4239C137.449 56.4214 137.449 56.4189 137.448 56.4164L137.504 56.4102C137.545 56.5722 137.593 56.7518 137.648 56.949C137.648 56.9499 137.649 56.9507 137.649 56.9516C137.649 56.9524 137.649 56.9532 137.65 56.954C137.709 57.1481 137.774 57.3253 137.843 57.4856L140.172 62.6449L142.686 62.3629L143.824 56.8146C143.856 56.643 143.877 56.4562 143.887 56.2543C143.887 56.2535 143.887 56.2527 143.887 56.2518C143.887 56.2511 143.887 56.2503 143.887 56.2495C143.901 56.0444 143.91 55.8582 143.915 55.6909L143.963 55.6855C143.963 55.6877 143.963 55.6899 143.963 55.6922C143.968 55.858 143.978 56.0414 143.991 56.2426C143.992 56.2482 143.992 56.2539 143.993 56.2595C143.993 56.2601 143.993 56.2608 143.993 56.2614C144.01 56.4529 144.028 56.629 144.046 56.7897L144.652 62.1423L147.729 61.7971L146.589 51.7281L142.505 52.1863L141.375 57.5516C141.347 57.7062 141.323 57.8442 141.302 57.9656C141.302 57.9664 141.302 57.9671 141.302 57.9679C141.299 57.9842 141.296 58.0002 141.294 58.0159C141.276 58.1477 141.267 58.3131 141.266 58.5121C141.266 58.5135 141.266 58.5149 141.266 58.5163L141.231 58.5202C141.231 58.5188 141.231 58.5175 141.23 58.5161C141.185 58.3223 141.139 58.1654 141.093 58.0454C141.086 58.0262 141.078 58.0065 141.071 57.9862C141.069 57.9835 141.068 57.9808 141.067 57.9781C141.024 57.8682 140.972 57.7434 140.91 57.6038L138.629 52.6211L134.615 53.0715L135.754 63.1405L138.22 62.8639ZM156.939 60.7639L156.685 58.5163L152.274 59.0111L152.069 57.1993L155.778 56.7832L155.532 54.6117L151.823 55.0278L151.646 53.4649L155.974 52.9794L155.716 50.7042L148.354 51.5302L149.493 61.5992L156.939 60.7639ZM156.974 53.4062C156.977 53.4498 156.981 53.4938 156.986 53.5381C157.024 53.8506 157.098 54.1355 157.21 54.3926C157.214 54.4024 157.219 54.4122 157.223 54.422C157.287 54.5642 157.363 54.6977 157.45 54.8227C157.619 55.0642 157.832 55.2734 158.088 55.4505C158.118 55.4715 158.149 55.4921 158.181 55.5121C158.77 55.8809 159.489 56.1382 160.336 56.2839C160.489 56.3102 160.646 56.3329 160.808 56.3519C161.064 56.3816 161.293 56.4119 161.493 56.4427C161.523 56.4472 161.551 56.4517 161.579 56.4563C161.698 56.4754 161.806 56.4947 161.903 56.5143C162.037 56.5412 162.152 56.5686 162.246 56.5964C162.355 56.6288 162.437 56.6617 162.493 56.6952C162.694 56.8173 162.812 57.0328 162.847 57.3417C162.874 57.5815 162.796 57.7817 162.613 57.9423C162.429 58.103 162.152 58.2041 161.782 58.2456C161.696 58.2553 161.614 58.2598 161.536 58.2593C161.508 58.2591 161.48 58.2583 161.454 58.2568C161.221 58.2442 161.024 58.1838 160.862 58.0757C160.771 58.0149 160.695 57.9387 160.633 57.847C160.632 57.8456 160.631 57.8442 160.631 57.8428C160.536 57.6999 160.476 57.5197 160.451 57.3024L160.425 57.0742L157.328 57.4217L157.365 57.7537C157.366 57.7642 157.368 57.7747 157.369 57.7852C157.396 58.0132 157.442 58.2263 157.505 58.4243C157.603 58.7326 157.745 59.0045 157.929 59.2401C158.141 59.5108 158.41 59.7335 158.736 59.9082C158.775 59.9287 158.814 59.9486 158.854 59.9678C159.731 60.3876 160.793 60.5276 162.038 60.3879C163.303 60.2461 164.298 59.8613 165.024 59.2336C165.755 58.6053 166.059 57.7495 165.936 56.666C165.838 55.8354 165.535 55.2001 165.026 54.7602C164.928 54.6754 164.823 54.5979 164.709 54.5276C164.059 54.1207 163.263 53.8422 162.322 53.6921C162.256 53.6816 162.189 53.6716 162.121 53.6624C161.972 53.6417 161.831 53.6218 161.701 53.6027C161.591 53.5866 161.487 53.571 161.391 53.556C161.375 53.5536 161.36 53.5512 161.345 53.5488C161.297 53.5413 161.25 53.5338 161.206 53.5265C161.113 53.5114 161.027 53.4968 160.95 53.4829C160.942 53.4816 160.935 53.4803 160.928 53.479C160.731 53.4433 160.583 53.4115 160.485 53.3837C160.467 53.3784 160.45 53.3733 160.435 53.3683C160.429 53.3661 160.423 53.3638 160.417 53.3615C160.407 53.3576 160.398 53.3536 160.389 53.3493C160.212 53.2687 160.112 53.12 160.087 52.9031C160.064 52.6957 160.128 52.5226 160.281 52.3841C160.404 52.2687 160.593 52.1869 160.849 52.1385C160.863 52.1359 160.877 52.1334 160.891 52.1309C160.94 52.1226 160.991 52.1153 161.045 52.1093C161.36 52.074 161.614 52.1164 161.807 52.2363C161.833 52.2523 161.858 52.2698 161.881 52.2886C162.067 52.4321 162.183 52.6328 162.228 52.8908C162.228 52.8912 162.228 52.8917 162.229 52.8921C162.233 52.9197 162.237 52.9478 162.241 52.9767L162.264 53.1841L165.286 52.8452L165.251 52.5409C165.183 51.9387 164.976 51.436 164.63 51.0328C164.422 50.7908 164.165 50.5846 163.857 50.4142C163.036 49.96 162.01 49.802 160.779 49.9402C159.538 50.0794 158.566 50.4639 157.863 51.0936C157.797 51.1535 157.734 51.215 157.675 51.2782C157.259 51.7242 157.025 52.2539 156.974 52.8672C156.959 53.0403 156.959 53.2199 156.974 53.4062Z" fill="white"/>
<path d="M5.73568 24.42L7.34247 32.3324L3.39062 33.889L8.12416 39.4666L4.95399 42.0176L11.6852 45.6927L9.94808 49.2382L17.5478 49.93L17.4175 53.9078L24.5829 51.4L26.1463 55.0752L31.6615 49.93L34.5711 52.6107L37.5242 45.6927L41.2589 47.0763L41.1286 39.5098L45.0804 39.2072L41.9103 32.3324L45.4279 30.43L39.6521 25.501L42.1274 22.3879L34.7883 20.1396L35.8305 16.2482L28.2308 17.2427L27.4925 13.2216L20.9785 17.2427L18.7637 13.8269L14.4211 20.1828L10.9903 17.9345L9.60067 25.501L5.73568 24.42Z" fill="#BB6BD9"/>
<path fill-rule="evenodd" clip-rule="evenodd" d="M28.17 11.7009L28.9956 16.1975L37.1021 15.1367L35.931 19.5093L43.7194 21.8952L40.9517 25.376L47.0778 30.604L43.1326 32.7376L46.4992 40.0383L42.0847 40.3764L42.2234 48.4335L38.0385 46.8831L34.9139 54.2032L31.6655 51.2103L25.8056 56.6771L24.061 52.5759L16.432 55.2459L16.5782 50.7826L8.50426 50.0477L10.4459 46.0848L3.27071 42.1672L6.78438 39.3398L1.82617 33.4975L6.26385 31.7496L4.50806 23.1034L8.86062 24.3207L10.3202 16.3735L14.1642 18.8927L18.7842 12.1309L21.2679 15.9615L28.17 11.7009ZM26.8149 14.7423L20.689 18.5239L18.7431 15.5229L14.6778 21.4729L11.6603 19.4954L10.3406 26.6812L6.96314 25.7366L8.42093 32.9153L4.95492 34.2805L9.46377 39.5933L6.63712 41.8679L12.9243 45.3007L11.3918 48.4287L18.5173 49.0773L18.4029 52.5697L25.1047 50.2242L26.4869 53.4733L31.6574 48.6496L34.2282 51.0182L37.0096 44.5023L40.2942 45.7192L40.1723 38.6432L43.6615 38.376L40.6878 31.9272L43.7778 30.256L38.3523 25.6259L40.5353 22.8805L33.6454 20.7698L34.5587 17.3597L27.4659 18.2878L26.8149 14.7423Z" fill="white"/>
<path fill-rule="evenodd" clip-rule="evenodd" d="M26.337 34.3567C26.337 35.2029 25.6557 35.917 24.7233 36.1421V37.0361C24.7233 37.0457 24.7232 37.0553 24.7232 37.0649C24.7307 37.6969 24.9862 38.3013 25.4355 38.7487C25.8918 39.203 26.5106 39.4582 27.1558 39.4582H27.3441C27.9998 39.4582 28.636 39.236 29.148 38.8282L29.9778 38.1672L30.7617 39.1428L29.9319 39.8037C29.1974 40.3888 28.2848 40.7075 27.3441 40.7075H27.1558C26.1778 40.7075 25.2398 40.3207 24.5482 39.6321C24.3788 39.4634 24.2275 39.28 24.0957 39.0849C23.9639 39.28 23.8126 39.4635 23.6432 39.6322C22.9516 40.3208 22.0137 40.7076 21.0356 40.7076H20.8473C19.9066 40.7076 18.994 40.3888 18.2595 39.8038L17.4297 39.1429L18.2136 38.1673L19.0434 38.8282C19.5554 39.236 20.1916 39.4582 20.8473 39.4582H21.0356C21.6808 39.4582 22.2996 39.203 22.7559 38.7488C23.2053 38.3014 23.4607 37.6969 23.4683 37.065C23.4682 37.0553 23.4681 37.0456 23.4681 37.036V36.1418C22.5363 35.9165 21.8555 35.2025 21.8555 34.3567C21.8555 33.3299 22.8587 32.4975 24.0963 32.4975C25.3338 32.4975 26.337 33.3299 26.337 34.3567Z" fill="white"/>
</svg>
