<svg width="90" height="90" viewBox="0 0 90 90" fill="none" xmlns="http://www.w3.org/2000/svg">
<g clip-path="url(#clip0_35_248)">
<path fill-rule="evenodd" clip-rule="evenodd" d="M45 0C20.1488 0 0 20.1488 0 45C0 69.8512 20.1488 90 45 90C69.8512 90 90 69.8512 90 45C90 20.1488 69.8512 0 45 0ZM65.8575 30.6038C65.1825 37.7175 62.25 54.9863 60.7612 62.955C60.1312 66.33 58.8862 67.4587 57.6863 67.5675C55.0725 67.8075 53.0888 65.8388 50.5575 64.1813C46.5975 61.5863 44.3587 59.97 40.515 57.435C36.0713 54.5062 38.9513 52.8975 41.4825 50.2687C42.1463 49.5788 53.6588 39.105 53.8838 38.1562C53.91 38.0363 53.94 37.5938 53.6737 37.3613C53.4075 37.1287 53.0212 37.2075 52.7437 37.2713C52.3462 37.3613 46.02 41.5425 33.7612 49.815C31.965 51.0488 30.3375 51.6488 28.8787 51.6188C27.2738 51.585 24.1838 50.7113 21.885 49.9613C19.0688 49.0462 16.8263 48.5588 17.0212 47.0062C17.1225 46.1963 18.2362 45.3675 20.3663 44.52C33.4837 38.805 42.2325 35.0363 46.6087 33.2138C59.1075 28.0163 61.7025 27.1125 63.3975 27.0825C65.52 27.0525 66.03 28.8038 65.8575 30.6038Z" fill="#AC28FD"/>
</g>
<defs>
<clipPath id="clip0_35_248">
<rect width="90" height="90" fill="white"/>
</clipPath>
</defs>
</svg>
