<svg width="80" height="80" viewBox="0 0 80 80" fill="none" xmlns="http://www.w3.org/2000/svg">
<g clip-path="url(#clip0_35_74)">
<path d="M60 28.3333C60 29.9815 59.5113 31.5926 58.5956 32.963C57.6799 34.3334 56.3784 35.4015 54.8557 36.0323C53.333 36.663 51.6574 36.828 50.0409 36.5065C48.4244 36.1849 46.9396 35.3913 45.7741 34.2258C44.6087 33.0604 43.815 31.5755 43.4935 29.959C43.1719 28.3425 43.337 26.667 43.9677 25.1442C44.5984 23.6215 45.6665 22.32 47.0369 21.4044C48.4073 20.4887 50.0185 19.9999 51.6667 19.9999C53.8768 19.9999 55.9964 20.8779 57.5592 22.4407C59.122 24.0035 60 26.1231 60 28.3333ZM55.53 59.0433C54.8786 61.6041 53.9533 64.0873 52.77 66.4499C50.5851 70.5819 47.3044 74.0322 43.2878 76.4224C39.2711 78.8126 34.6738 80.0504 30 79.9999H26.6667V63.8099C26.6064 61.0503 25.4832 58.4204 23.5314 56.4686C21.5795 54.5168 18.9497 53.3936 16.19 53.3333H1.86242e-05V49.9999C-0.0504424 45.3262 1.18733 40.7288 3.57756 36.7122C5.96778 32.6956 9.4181 29.4148 13.55 27.2299C15.9126 26.0466 18.3959 25.1213 20.9567 24.4699C33.2 7.93328 47.4034 0.593275 68.1934 -5.83251e-05H68.3334C69.8812 -0.0051831 71.4146 0.298744 72.8435 0.893908C74.2724 1.48907 75.5682 2.36349 76.6548 3.46592C77.7414 4.56835 78.597 5.87659 79.1714 7.31397C79.7458 8.75135 80.0275 10.2889 80 11.8366C79.4 32.9233 72.2867 46.6666 55.53 59.0433ZM70 11.6933C70.0072 11.2552 69.8416 10.8319 69.5391 10.515C69.2365 10.198 68.8213 10.013 68.3833 9.99994C50.18 10.5399 38.92 16.5533 28.2567 31.4366C25.4919 35.3955 23.0336 39.5598 20.9034 43.8933C24.5744 44.8179 27.9264 46.7197 30.6033 49.3966C33.2802 52.0735 35.182 55.4256 36.1067 59.0966C40.4405 56.9671 44.6049 54.5088 48.5634 51.7433C63.4734 41.0566 69.4867 29.8299 70 11.6933ZM5.43669 62.4266C2.85669 64.9999 1.26669 72.7699 0.703352 75.9999L1.86242e-05 79.9999L4.00002 79.2933C7.20335 78.7266 14.9267 77.13 17.5067 74.5433C19.1056 72.9324 20.0029 70.7547 20.0029 68.4849C20.0029 66.2152 19.1056 64.0375 17.5067 62.4266C15.8843 60.8676 13.7217 59.997 11.4717 59.997C9.22171 59.997 7.05903 60.8676 5.43669 62.4266Z" fill="#ABF337"/>
</g>
<defs>
<clipPath id="clip0_35_74">
<rect width="80" height="80" fill="white"/>
</clipPath>
</defs>
</svg>
